<svg width="108" height="36" viewBox="0 0 108 36" fill="none" xmlns="http://www.w3.org/2000/svg">
<path d="M26.784 28.2237C26.784 28.5117 26.748 28.7637 26.64 29.0157C26.532 29.2317 26.424 29.4477 26.244 29.6277C26.064 29.8077 25.848 29.9157 25.596 29.9877C25.344 30.0597 25.056 30.1317 24.768 30.1317C24.264 30.1317 23.832 30.0597 23.472 29.8797C23.076 29.7357 22.788 29.5557 22.536 29.3397L23.256 28.6197C23.436 28.7997 23.652 28.9437 23.904 29.0157C24.048 29.0877 24.192 29.1237 24.336 29.1237C24.48 29.1237 24.588 29.1597 24.66 29.1597C24.804 29.1597 24.948 29.1237 25.092 29.0877C25.236 29.0517 25.344 28.9797 25.416 28.9437C25.632 28.7997 25.704 28.5837 25.704 28.3677C25.704 28.2237 25.668 28.0797 25.56 27.9717C25.488 27.8637 25.38 27.7917 25.236 27.7557C25.128 27.6837 25.02 27.6477 24.912 27.6117C24.804 27.5757 24.696 27.5397 24.588 27.5037C24.552 27.5037 24.516 27.4677 24.516 27.4677C24.48 27.4677 24.48 27.4677 24.444 27.4317H24.408C24.3 27.3957 24.12 27.3237 23.868 27.2517C23.652 27.1797 23.4 27.0357 23.184 26.8917C22.644 26.5317 22.392 26.0997 22.392 25.5597C22.392 25.1997 22.464 24.9117 22.572 24.6597C22.68 24.4077 22.86 24.2277 23.04 24.0837C23.22 23.9397 23.436 23.8317 23.688 23.7597C23.94 23.6877 24.156 23.6517 24.408 23.6517C24.84 23.6517 25.2 23.6877 25.488 23.7957C25.776 23.9037 25.992 24.0117 26.172 24.0837C26.244 24.1197 26.352 24.1917 26.388 24.2277C26.46 24.2637 26.496 24.3357 26.568 24.3717L25.812 25.1277C25.668 24.9837 25.488 24.8397 25.308 24.7677C25.056 24.6597 24.804 24.5877 24.516 24.5877C24.408 24.5877 24.264 24.5877 24.156 24.6237C24.048 24.6597 23.94 24.6957 23.832 24.7317C23.58 24.8757 23.436 25.0917 23.436 25.3797C23.436 25.5237 23.472 25.6677 23.58 25.7757C23.652 25.8477 23.76 25.9557 23.904 26.0277C24.012 26.0997 24.12 26.1357 24.264 26.1717C24.372 26.2077 24.516 26.2437 24.624 26.2797L24.732 26.3157C24.768 26.3157 24.804 26.3517 24.912 26.3517C24.984 26.3877 25.092 26.4237 25.2 26.4597C25.308 26.4957 25.452 26.5677 25.56 26.6397C25.704 26.7117 25.812 26.7837 25.956 26.8557C26.496 27.2877 26.784 27.7197 26.784 28.2237Z" fill="black"/>
<path d="M32.724 23.6517C33.156 23.6517 33.588 23.7237 33.984 23.9037C34.38 24.0837 34.704 24.2997 35.028 24.5877C35.316 24.8757 35.568 25.2357 35.712 25.6317C35.892 26.0277 35.964 26.4597 35.964 26.8917C35.964 27.3237 35.892 27.7557 35.712 28.1517C35.532 28.5477 35.316 28.8717 35.028 29.1957C34.74 29.4837 34.38 29.7357 33.984 29.8797C33.588 30.0597 33.156 30.1317 32.724 30.1317C32.292 30.1317 31.86 30.0597 31.464 29.8797C31.068 29.6997 30.744 29.4837 30.42 29.1957C30.132 28.9077 29.88 28.5477 29.736 28.1517C29.556 27.7557 29.484 27.3237 29.484 26.8917C29.484 26.4597 29.556 26.0277 29.736 25.6317C29.916 25.2357 30.132 24.9117 30.42 24.5877C30.708 24.2997 31.068 24.0477 31.464 23.9037C31.86 23.7597 32.292 23.6517 32.724 23.6517ZM32.724 24.7317C32.436 24.7317 32.148 24.8037 31.896 24.9117C31.644 25.0197 31.392 25.1637 31.212 25.3797C30.996 25.5957 30.852 25.8117 30.744 26.0637C30.636 26.3157 30.564 26.6037 30.564 26.8917C30.564 27.1797 30.636 27.4677 30.744 27.7197C30.852 27.9717 30.996 28.2237 31.212 28.4397C31.428 28.6557 31.644 28.7997 31.896 28.9077C32.148 29.0157 32.436 29.0517 32.724 29.0517C33.012 29.0517 33.3 29.0157 33.552 28.9077C33.804 28.7997 34.056 28.6557 34.272 28.4397C34.488 28.2237 34.632 28.0077 34.74 27.7197C34.848 27.4317 34.884 27.1797 34.884 26.8917C34.884 26.6037 34.848 26.3157 34.74 26.0637C34.632 25.8117 34.488 25.5597 34.272 25.3797C34.056 25.1637 33.84 25.0197 33.552 24.9117C33.3 24.7677 33.012 24.7317 32.724 24.7317Z" fill="black"/>
<path d="M42.3 29.0157V30.1317H39.78H38.664V29.0157V23.6877H39.78V29.0157H42.3Z" fill="black"/>
<path d="M50.328 23.6517V27.4677C50.328 27.8277 50.256 28.1877 50.112 28.5117C49.968 28.8357 49.788 29.1237 49.536 29.3757C49.284 29.6277 48.996 29.8077 48.672 29.9517C48.348 30.0957 47.988 30.1677 47.628 30.1677C47.268 30.1677 46.908 30.0957 46.584 29.9517C46.26 29.8077 45.972 29.6277 45.72 29.3757C45.468 29.1237 45.288 28.8357 45.144 28.5117C45 28.1877 44.928 27.8277 44.928 27.4677V23.6517H46.008V27.4677C46.008 27.6837 46.044 27.8637 46.116 28.0797C46.188 28.2597 46.296 28.4397 46.476 28.5837C46.62 28.7277 46.8 28.8357 46.98 28.9437C47.16 29.0157 47.376 29.0517 47.592 29.0517C48.024 29.0517 48.384 28.9077 48.708 28.5837C48.852 28.4397 48.96 28.2597 49.068 28.0797C49.14 27.8997 49.176 27.6837 49.176 27.4677V23.6517H50.328Z" fill="black"/>
<path d="M57.924 24.7677H56.052V30.0957H54.936V24.7677H53.028V23.6517H54.936H56.052H57.924V24.7677Z" fill="black"/>
<path d="M61.74 30.1317H60.624V23.6877H61.74V30.1317Z" fill="black"/>
<path d="M67.68 23.6877C68.112 23.6877 68.544 23.7597 68.94 23.9397C69.336 24.1197 69.66 24.3357 69.984 24.6237C70.272 24.9117 70.524 25.2717 70.668 25.6677C70.848 26.0637 70.92 26.4957 70.92 26.9277C70.92 27.3597 70.848 27.7917 70.668 28.1877C70.488 28.5837 70.272 28.9077 69.984 29.2317C69.696 29.5197 69.336 29.7717 68.94 29.9157C68.544 30.0957 68.112 30.1677 67.68 30.1677C67.248 30.1677 66.816 30.0957 66.42 29.9157C66.024 29.7357 65.7 29.5197 65.376 29.2317C65.088 28.9437 64.836 28.5837 64.692 28.1877C64.512 27.7917 64.44 27.3597 64.44 26.9277C64.44 26.4957 64.512 26.0637 64.692 25.6677C64.872 25.2717 65.088 24.9477 65.376 24.6237C65.664 24.3357 66.024 24.0837 66.42 23.9397C66.816 23.7597 67.212 23.6877 67.68 23.6877ZM67.68 24.7317C67.392 24.7317 67.104 24.8037 66.852 24.9117C66.6 25.0197 66.348 25.1637 66.168 25.3797C65.952 25.5957 65.808 25.8117 65.7 26.0637C65.592 26.3157 65.52 26.6037 65.52 26.8917C65.52 27.1797 65.592 27.4677 65.7 27.7197C65.808 27.9717 65.952 28.2237 66.168 28.4397C66.384 28.6557 66.6 28.7997 66.852 28.9077C67.104 29.0157 67.392 29.0517 67.68 29.0517C67.968 29.0517 68.256 29.0157 68.508 28.9077C68.76 28.7997 69.012 28.6557 69.228 28.4397C69.444 28.2237 69.588 28.0077 69.696 27.7197C69.804 27.4677 69.84 27.1797 69.84 26.8917C69.84 26.6037 69.804 26.3157 69.696 26.0637C69.588 25.8117 69.444 25.5597 69.228 25.3797C69.012 25.1637 68.796 25.0197 68.508 24.9117C68.22 24.8037 67.968 24.7317 67.68 24.7317Z" fill="black"/>
<path d="M78.516 23.6517V30.1317H77.328L74.736 25.7037V30.1317H73.62V23.6517H74.808L77.4 28.0797V23.6517H78.516Z" fill="black"/>
<path d="M85.68 28.2237C85.68 28.5117 85.644 28.7637 85.536 29.0157C85.428 29.2317 85.32 29.4477 85.14 29.6277C84.96 29.8077 84.744 29.9157 84.492 29.9877C84.24 30.0597 83.952 30.1317 83.664 30.1317C83.16 30.1317 82.728 30.0597 82.332 29.8797C81.936 29.7357 81.648 29.5557 81.396 29.3397L82.116 28.6197C82.296 28.7997 82.548 28.9437 82.764 29.0157C82.908 29.0877 83.052 29.1237 83.196 29.1237C83.34 29.1237 83.448 29.1597 83.52 29.1597C83.664 29.1597 83.808 29.1237 83.952 29.0877C84.096 29.0517 84.204 28.9797 84.276 28.9437C84.492 28.7997 84.564 28.5837 84.564 28.3677C84.564 28.2237 84.528 28.0797 84.42 27.9717C84.348 27.8637 84.24 27.7917 84.096 27.7557C83.988 27.6837 83.88 27.6477 83.772 27.6117C83.664 27.5757 83.556 27.5397 83.448 27.5037C83.412 27.5037 83.376 27.4677 83.376 27.4677C83.34 27.4677 83.34 27.4677 83.304 27.4317H83.268C83.16 27.3957 82.98 27.3237 82.728 27.2517C82.512 27.1797 82.26 27.0357 82.044 26.8917C81.504 26.5317 81.252 26.0997 81.252 25.5597C81.252 25.1997 81.324 24.9117 81.432 24.6597C81.54 24.4077 81.72 24.2277 81.9 24.0837C82.08 23.9397 82.296 23.8317 82.548 23.7597C82.8 23.6877 83.016 23.6517 83.268 23.6517C83.7 23.6517 84.06 23.6877 84.348 23.7957C84.636 23.9037 84.852 24.0117 85.032 24.0837C85.104 24.1197 85.212 24.1917 85.248 24.2277C85.32 24.2637 85.356 24.3357 85.428 24.3717L84.672 25.1277C84.528 24.9837 84.348 24.8397 84.168 24.7677C83.916 24.6597 83.664 24.5877 83.376 24.5877C83.268 24.5877 83.124 24.5877 83.016 24.6237C82.908 24.6597 82.8 24.6957 82.692 24.7317C82.44 24.8757 82.296 25.0917 82.296 25.3797C82.296 25.5237 82.332 25.6677 82.44 25.7757C82.512 25.8477 82.62 25.9557 82.764 26.0277C82.872 26.0997 82.98 26.1357 83.124 26.1717C83.232 26.2077 83.376 26.2437 83.484 26.2797L83.592 26.3157C83.628 26.3157 83.664 26.3517 83.772 26.3517C83.844 26.3877 83.952 26.4237 84.06 26.4597C84.168 26.4957 84.312 26.5677 84.42 26.6397C84.564 26.7117 84.672 26.7837 84.816 26.8557C85.392 27.2877 85.68 27.7197 85.68 28.2237Z" fill="black"/>
<path d="M11.952 5.86792L5.97603 19.0799H8.46003L9.46803 16.8119H14.94H16.848L17.856 19.0799H20.34L14.436 5.86792H11.952ZM13.176 8.63992L15.84 14.5439H13.464H10.476L13.176 8.63992Z" fill="black"/>
<path d="M33.048 14.9037L27.756 5.86768H25.308V19.0797H27.576V10.0437L32.868 19.0797H35.316V5.86768H33.048V14.9037Z" fill="black"/>
<path d="M44.2079 5.86768H40.3199V8.13568H44.1719V11.2317H44.2079V19.0797H46.4399V11.2317V8.13568H50.3279V5.86768H46.4399H44.2079Z" fill="black"/>
<path d="M61.632 11.8437L57.888 5.86768H55.224L60.516 14.3277V19.0797H62.784V14.6157V14.3277L62.964 14.0037L68.076 5.86768H65.376L61.632 11.8437Z" fill="black"/>
<path d="M81.9 13.1757C82.116 12.8157 82.332 12.4197 82.44 11.9877C82.584 11.5557 82.62 11.0877 82.62 10.6197C82.62 9.97175 82.512 9.35975 82.26 8.78375C82.008 8.20775 81.684 7.70375 81.252 7.27175C80.82 6.83975 80.316 6.51575 79.74 6.26375C79.164 6.01175 78.552 5.90375 77.904 5.90375H72.972V9.39575V15.3717V19.0797H75.24V15.3717H77.58L79.956 19.0797H82.656L79.956 14.9037C80.352 14.7237 80.712 14.4717 81.072 14.1837C81.396 13.8597 81.684 13.5357 81.9 13.1757ZM80.208 11.5557C80.1 11.8437 79.92 12.1317 79.668 12.3837C79.164 12.8877 78.588 13.1037 77.904 13.1037H76.932H75.24V9.39575V8.13575H77.904C78.588 8.13575 79.164 8.38775 79.668 8.85575C79.884 9.07175 80.064 9.35975 80.208 9.64775C80.316 9.93575 80.388 10.2597 80.388 10.5837C80.388 10.9437 80.316 11.2677 80.208 11.5557Z" fill="black"/>
<path d="M96.048 5.86768H93.564L87.624 19.0797H90.108L91.116 16.8117H96.588H98.496L99.504 19.0797H101.988L96.048 5.86768ZM94.824 8.63968L97.488 14.5437H94.824H92.16L94.824 8.63968Z" fill="black"/>
</svg>
