<svg width="136" height="37" viewBox="0 0 136 37" fill="none" xmlns="http://www.w3.org/2000/svg">
<g filter="url(#filter0_d_456_261)">
<path d="M89.8758 32.1879H90.3075L91.1708 34.6915L91.8614 32.4469H92.2068L92.8974 34.6915L93.7607 32.1879H94.1924L93.1564 35.2094H92.7247L92.0341 33.0512L91.3434 35.2094H90.9118L89.8758 32.1879Z" fill="black"/>
<path d="M95.401 33.8282C95.401 34.6051 96.0916 34.9505 96.6096 34.9505C97.0413 34.9505 97.4729 34.6915 97.6456 34.3461H98.0773C97.9046 34.6915 97.7319 34.9505 97.4729 35.0368C97.2139 35.2094 96.955 35.2958 96.6096 35.2958C95.5737 35.2958 95.0557 34.4325 95.0557 33.7418C95.0557 32.8785 95.7463 32.1879 96.6096 32.1879C97.0413 32.1879 97.3866 32.3605 97.7319 32.6195C98.0773 32.9648 98.2499 33.3965 98.1636 33.9145H95.401V33.8282ZM97.7319 33.4828C97.7319 32.9648 97.2139 32.4469 96.6096 32.4469C95.919 32.4469 95.4873 32.9648 95.401 33.4828H97.7319Z" fill="black"/>
<path d="M104.725 34.8645C104.725 35.4688 104.552 35.8141 104.293 36.0731C104.034 36.3321 103.603 36.5047 103.171 36.5047C102.394 36.5047 101.876 36.0731 101.703 35.5551H102.221C102.308 35.6414 102.394 35.8141 102.567 35.9868C102.826 36.1594 103.085 36.2458 103.257 36.2458C103.862 36.2458 104.379 35.8141 104.379 35.0371V34.5191C104.207 34.9508 103.775 35.2098 103.171 35.2098C102.221 35.2098 101.617 34.5191 101.617 33.6558C101.617 32.7925 102.308 32.1019 103.171 32.1019C103.775 32.1019 104.207 32.4472 104.379 32.7925V32.1882H104.811V34.8645H104.725ZM101.962 33.6558C101.962 34.2601 102.394 34.8645 103.171 34.8645C103.516 34.8645 103.775 34.7781 104.034 34.5191C104.207 34.2601 104.379 34.0011 104.379 33.6558C104.379 33.3968 104.293 33.1378 104.121 32.8788C103.948 32.6199 103.603 32.4472 103.171 32.4472C102.48 32.4472 101.962 32.9652 101.962 33.6558Z" fill="black"/>
<path d="M106.365 33.8282C106.365 34.6051 107.056 34.9505 107.574 34.9505C108.005 34.9505 108.437 34.6915 108.61 34.3461H109.041C108.869 34.6915 108.696 34.9505 108.437 35.0368C108.178 35.2094 107.919 35.2958 107.574 35.2958C106.538 35.2958 106.02 34.4325 106.02 33.7418C106.02 32.8785 106.71 32.1879 107.574 32.1879C108.005 32.1879 108.351 32.3605 108.696 32.6195C109.041 32.9648 109.214 33.3965 109.128 33.9145H106.365V33.8282ZM108.696 33.4828C108.696 32.9648 108.178 32.4469 107.574 32.4469C106.883 32.4469 106.451 32.9648 106.365 33.4828H108.696Z" fill="black"/>
<path d="M110.681 32.5334H110.077V32.188H110.681V31.0657H111.113V32.188H111.804V32.5334H111.113V35.2096H110.681V32.5334Z" fill="black"/>
<path d="M115.948 35.1231L114.825 32.1879H115.257L116.207 34.6051L117.156 32.1879H117.588L115.861 36.3318H115.43L115.948 35.1231Z" fill="black"/>
<path d="M118.365 33.6558C118.365 32.7925 118.969 32.1019 119.919 32.1019C120.869 32.1019 121.559 32.8788 121.559 33.6558C121.559 34.5191 120.955 35.2098 119.919 35.2098C119.056 35.2961 118.365 34.5191 118.365 33.6558ZM118.797 33.6558C118.797 34.3465 119.315 34.8645 120.005 34.8645C120.696 34.8645 121.214 34.3465 121.214 33.6558C121.214 32.9652 120.696 32.4472 120.005 32.4472C119.315 32.4472 118.797 32.9652 118.797 33.6558Z" fill="black"/>
<path d="M125.703 35.2094H125.271V34.6915C125.099 35.1231 124.667 35.2958 124.149 35.2958C123.2 35.2958 122.854 34.6051 122.854 33.9145V32.1879H123.286V33.8282C123.286 34.5188 123.545 34.9505 124.235 34.9505C124.84 34.9505 125.185 34.6051 125.185 33.9145V32.1879H125.617V35.2094H125.703Z" fill="black"/>
<path d="M43.2571 8.70591H48.8687V10.8642C50.1636 9.39655 52.1492 8.01526 55.1708 8.01526C62.25 8.01526 64.8399 14.2311 64.8399 18.8066C64.8399 24.5045 60.8687 29.2527 55.1708 29.2527C51.6312 29.2527 49.9046 27.5261 49.214 26.7491V28.562V35.2095H43.2571V8.70591ZM58.883 18.634C58.883 16.303 57.1564 13.6268 53.8759 13.6268C52.4082 13.6268 51.1996 14.2311 50.3363 15.0944C49.473 15.9577 48.955 17.2527 48.955 18.7203C48.955 20.1016 49.473 21.3966 50.4226 22.2599C51.2859 23.1232 52.5809 23.7275 53.9622 23.7275C57.0701 23.7275 58.883 21.1376 58.883 18.634Z" fill="black"/>
<path d="M66.1348 18.634C66.1348 13.7995 69.5881 8.10162 76.8399 8.10162C84.0917 8.10162 87.5449 13.7995 87.5449 18.634C87.5449 23.4685 84.0917 29.1664 76.8399 29.1664C69.5881 29.1664 66.1348 23.4685 66.1348 18.634ZM72.0053 18.634C72.0053 21.4829 74.1636 23.6412 76.7535 23.6412C79.3435 23.6412 81.5017 21.5693 81.5017 18.634C81.5017 15.6987 79.3435 13.6268 76.7535 13.6268C74.2499 13.6268 72.0053 15.7851 72.0053 18.634Z" fill="black"/>
<path d="M95.6601 8.70612H89.7032V28.5622H95.6601V8.70612Z" fill="black"/>
<path d="M98.1636 8.70591H103.689V10.7778C104.379 9.82821 105.588 8.01526 109.128 8.01526C115.775 8.01526 116.466 13.4541 116.466 16.1304V28.562H110.509V17.7707C110.509 15.6124 110.077 13.6268 107.401 13.6268C104.466 13.6268 104.034 15.6987 104.034 17.7707V28.562H98.0773V8.70591H98.1636Z" fill="black"/>
<path d="M120.178 13.2816H117.243V8.70605H120.178V2.1449H126.135V8.79238H128.984V13.2816H126.135V28.6485H120.178V13.2816Z" fill="black"/>
<path d="M135.804 28.5623H129.588V22.5191H135.804V28.5623Z" fill="black"/>
<path d="M0.696045 0.850098V35.2098H7.68885V8.79254H16.4083C21.2428 8.79254 23.2284 9.48319 24.8687 10.7782C26.9407 12.5048 28.1493 15.2674 28.1493 18.1163C28.1493 20.9652 26.9406 23.9005 25.1277 25.3681C23.1421 26.922 21.1565 27.6127 17.0126 27.6127H16.4083V22.5192H16.9263C18.2212 22.5192 19.5162 22.4328 20.7248 21.7422C21.7608 21.2242 22.6241 19.9292 22.6241 18.1163C22.6241 16.3033 21.7608 15.0947 20.6385 14.5767C19.5162 13.9724 18.1349 13.7997 16.7536 13.7997H13.5594V22.5192V27.6127V35.2098H35.1421V0.850098H0.696045ZM29.8759 31.6702C28.8399 31.6702 28.063 30.8069 28.063 29.8573C28.063 28.8213 28.9263 28.0443 29.8759 28.0443C30.8255 28.0443 31.6889 28.9076 31.6889 29.8573C31.6889 30.8933 30.8255 31.6702 29.8759 31.6702Z" fill="black"/>
</g>
<defs>
<filter id="filter0_d_456_261" x="-3.30396" y="0.850098" width="143.108" height="43.6547" filterUnits="userSpaceOnUse" color-interpolation-filters="sRGB">
<feFlood flood-opacity="0" result="BackgroundImageFix"/>
<feColorMatrix in="SourceAlpha" type="matrix" values="0 0 0 0 0 0 0 0 0 0 0 0 0 0 0 0 0 0 127 0" result="hardAlpha"/>
<feOffset dy="4"/>
<feGaussianBlur stdDeviation="2"/>
<feComposite in2="hardAlpha" operator="out"/>
<feColorMatrix type="matrix" values="0 0 0 0 0 0 0 0 0 0 0 0 0 0 0 0 0 0 0.25 0"/>
<feBlend mode="normal" in2="BackgroundImageFix" result="effect1_dropShadow_456_261"/>
<feBlend mode="normal" in="SourceGraphic" in2="effect1_dropShadow_456_261" result="shape"/>
</filter>
</defs>
</svg>
