<svg width="207" height="36" viewBox="0 0 207 36" fill="none" xmlns="http://www.w3.org/2000/svg">
<g clip-path="url(#clip0_456_356)">
<path d="M0 0H206.897V36H0V0Z" fill="white"/>
<path d="M46.7586 5.37927H53.3793V5.79307H55.0345V6.20686H55.862V6.62065H56.6896V7.03444H57.5172V7.44824H58.3448V7.86203H58.7586V8.27582H59.1724V8.68962H60V9.10341H60.4138V9.5172H60.8276V9.931H61.2413V10.3448H61.6551V11.1724H62.0689V11.5862H62.4827V12.4138H62.8965V13.6551H63.3103V14.4827H63.7241V16.1379H64.1379V20.6896H63.7241V22.3448H63.3103V23.1724H62.8965V24H62.4827V24.8275H62.0689V25.6551H61.6551V26.0689H61.2413V26.8965H60.8276V27.3103H60.4138V27.7241H60V28.1379H59.1724V28.5517H58.7586V28.9655H58.3448V29.3793H57.5172V29.7931H56.6896V30.2069H55.862V30.6207H54.6207V31.0344H53.7931V31.4482H47.1724V31.0344H45.5172V30.6207H44.6896V30.2069H43.862V29.7931H43.0345V29.3793H42.2069V28.9655H41.7931V28.5517H40.9655V28.1379H40.5517V27.7241H40.1379V27.3103H39.7241V26.8965H39.3103V26.0689H38.8965V25.6551H38.4827V24.8275H38.0689V24H37.6551V23.1724H37.2413V22.3448H36.8276V20.6896H36.4138V16.1379H36.8276V14.4827H37.2413V13.6551H37.6551V12.4138H38.0689V12H38.4827V11.1724H38.8965V10.3448H39.3103V9.931H39.7241V9.5172H40.1379V9.10341H40.5517V8.68962H40.9655V8.27582H41.7931V7.86203H42.2069V7.44824H42.6207V7.03444H43.4482V6.62065H44.2758V6.20686H45.931V5.79307H46.7586V5.37927Z" fill="#020407"/>
<path d="M122.483 4.96545H128.276V5.37925H129.517V5.79304H130.759V6.20683H132V6.62063H132.414V7.03442H133.241V7.44821H133.655V7.86201H134.483V8.2758H134.897V8.68959H135.31V9.10339H135.724V9.51718H136.138V10.3448H136.552V10.7586H136.965V11.5861H137.379V11.9999H137.793V12.8275H138.207V14.0689H138.621V16.1379H139.034V20.2758H138.621V21.931H138.207V22.7586H137.793V23.5861H137.379V24.8275H136.965V25.2413H136.552V25.6551H136.138V26.4827H135.724V26.8965H135.31V27.3103H134.897V27.7241H134.483V28.1379H133.655V28.5517H133.241V28.9655H132.414V29.3792H132V29.793H130.759V30.2068H129.517V30.6206H127.862V31.0344H121.655V30.6206H120.414V30.2068H119.586V29.793H118.345V29.3792H117.931V28.9655H117.103V28.5517H116.69V28.1379H115.862V27.7241H115.448V27.3103H115.034V26.8965H114.621V26.4827H114.207V25.6551H113.793V25.2413H113.379V24.4137H112.965V23.5861H112.552V22.7586H112.138V21.1034H111.724V14.4827H112.138V13.2413H112.552V12.4137H112.965V11.5861H113.379V10.7586H113.793V10.3448H114.207V9.93097H114.621V9.10339H115.034V8.68959H115.448V8.2758H115.862V7.86201H116.69V7.44821H117.103V7.03442H117.931V6.62063H118.759V6.20683H119.172V5.79304H120.414V5.37925H122.483V4.96545Z" fill="#020407"/>
<path d="M4.1379 6.20679H16.9655V6.62058H18.2069V7.03437H18.6207V7.44817H19.4482V7.86196H19.862V8.27575H20.2758V8.68955H20.6896V9.10334H21.1034V9.93093H21.5172V10.7585H21.931V16.5516H21.5172V17.3792H21.1034V17.793H20.6896V18.6206H20.2758V19.0344H19.862V19.4482H19.0345V19.862H18.2069V20.2758H16.9655V21.1033H17.3793V21.5171H17.7931V22.3447H18.2069V22.7585H18.6207V23.1723H19.0345V23.9999H19.4482V24.4137H19.862V24.8275H20.2758V25.6551H20.6896V26.0689H21.1034V26.4827H21.5172V26.8964H21.931V27.724H22.3448V28.1378H22.7586V28.5516H23.1724V29.3792H23.5862V29.793H24V30.2068H24.4138V30.6206H16.1379V29.793H15.7241V29.3792H15.3103V28.5516H14.8965V28.1378H14.4827V27.3102H14.0689V26.4827H13.6551V26.0689H13.2413V25.2413H12.8276V24.8275H12.4138V23.9999H12V23.5861H11.5862V22.7585H11.1724V21.9309H10.7586V21.5171H10.3448V30.6206H4.1379V6.20679Z" fill="#020407"/>
<path d="M86.069 5.79297H92.2759V15.3102H101.793V5.79297H108V30.2068H101.793V20.2757H92.2759V30.2068H86.069V5.79297Z" fill="#020407"/>
<path d="M142.345 5.37927H148.965V23.1724H149.379V23.5862H149.793V24.4138H150.207V24.8275H151.034V25.2413H155.172V24.8275H156V24.4138H156.414V24H156.828V23.1724H157.241V21.5172H157.655V5.79307H163.862V23.1724H163.448V24.8275H163.034V26.0689H162.621V26.8965H162.207V27.3103H161.793V28.1379H161.379V28.5517H160.965V28.9655H160.552V29.3793H159.724V29.7931H158.897V30.2069H157.655V30.6207H156.414V31.0344H149.379V30.6207H148.138V30.2069H147.31V29.7931H146.483V29.3793H145.655V28.9655H145.241V28.5517H144.828V28.1379H144.414V27.3103H144V26.8965H143.586V26.0689H143.172V24.8275H142.759V24H142.345V5.37927Z" fill="#020407"/>
<path d="M173.379 4.96545H178.759V5.37925H180.414V5.79304H182.069V6.20683H182.897V6.62063H183.724V7.86201H183.31V8.68959H182.897V9.10339H182.483V10.3448H182.069V10.7586H181.655V11.5861H180.414V11.1724H179.586V10.7586H178.345V10.3448H175.448V10.7586H175.034V11.1724H174.621V13.6551H175.034V14.0689H175.862V14.4827H176.69V14.8965H178.345V15.3103H179.586V15.7241H180.414V16.1379H181.241V16.5517H182.069V16.9655H182.483V17.3792H182.897V17.793H183.31V18.2068H183.724V18.6206H184.138V19.4482H184.552V20.2758H184.966V24.8275H184.552V26.0689H184.138V26.8965H183.724V27.7241H183.31V28.1379H182.897V28.5517H182.483V28.9655H182.069V29.3792H181.241V29.793H180.414V30.2068H179.586V30.6206H178.345V31.0344H172.138V30.6206H170.483V30.2068H169.655V29.793H168.828V29.3792H168V28.9655H167.172V28.5517H166.759V27.7241H167.172V26.8965H167.586V26.0689H168V25.2413H168.414V24.4137H168.828V23.5861H169.241V23.1724H169.655V23.5861H170.069V23.9999H170.897V24.4137H171.724V24.8275H172.138V25.2413H173.379V25.6551H176.276V25.2413H177.103V24.8275H177.517V24.4137H177.931V21.931H177.517V21.5172H177.103V21.1034H175.862V20.6896H174.621V20.2758H173.379V19.862H172.552V19.4482H171.31V19.0344H170.483V18.6206H170.069V18.2068H169.655V17.793H169.241V17.3792H168.828V16.9655H168.414V16.1379H168V15.3103H167.586V10.7586H168V9.93097H168.414V9.10339H168.828V8.2758H169.241V7.86201H169.655V7.44821H170.069V7.03442H170.483V6.62063H170.897V6.20683H171.724V5.79304H172.552V5.37925H173.379V4.96545Z" fill="#020407"/>
<path d="M189.103 5.79297H202.759V11.1723H195.31V15.3102H202.759V20.6895H195.31V24.8275H203.172V30.2068H189.103V5.79297Z" fill="#020407"/>
<path d="M65.3793 5.79297H82.7586V11.5861H76.9655V30.6206H70.7586V11.5861H65.3793V5.79297Z" fill="#020407"/>
<path d="M123.31 11.1724H127.034V11.5862H127.862V11.9999H128.69V12.4137H129.517V12.8275H129.931V13.2413H130.345V13.6551H130.759V14.0689H131.172V14.8965H131.586V15.7241H132V20.2758H131.586V21.1034H131.172V21.931H130.759V22.3448H130.345V22.7586H129.931V23.1724H129.517V23.5862H129.103V23.9999H128.276V24.4137H126.621V24.8275H123.724V24.4137H122.069V23.9999H121.655V23.5862H120.828V23.1724H120.414V22.7586H120V22.3448H119.586V21.931H119.172V21.1034H118.759V20.2758H118.345V15.7241H118.759V14.8965H119.172V14.0689H119.586V13.6551H120V13.2413H120.414V12.8275H120.828V12.4137H121.655V11.9999H122.069V11.5862H123.31V11.1724Z" fill="white"/>
<path d="M48.4137 11.5862H52.1379V12H53.3793V12.4138H53.7931V12.8276H54.6206V13.2414H55.0344V13.6551H55.4482V14.0689H55.862V14.4827H56.2758V15.3103H56.6896V16.1379H57.1034V20.2758H56.6896V21.5172H56.2758V22.3448H55.862V22.7586H55.4482V23.1724H55.0344V23.5862H54.6206V24H53.7931V24.4138H52.9655V24.8276H51.7241V25.2414H48.4137V24.8276H47.1724V24.4138H46.7586V24H45.931V23.5862H45.5172V23.1724H45.1034V22.7586H44.6896V22.3448H44.2758V21.5172H43.862V20.2758H43.4482V16.1379H43.862V15.3103H44.2758V14.4827H44.6896V14.0689H45.1034V13.6551H45.5172V13.2414H45.931V12.8276H46.3448V12.4138H47.1724V12H48.4137V11.5862Z" fill="white"/>
<path d="M26.4827 5.79297H33.1034V12.8275H32.6896V17.793H32.2758V21.9309H27.3103V15.3102H26.8965V8.68952H26.4827V5.79297Z" fill="#020407"/>
<path d="M28.5517 23.9999H31.0344V24.4137H31.862V24.8275H32.2758V25.2413H32.6896V25.6551H33.1034V28.9655H32.6896V29.3792H32.2758V29.793H31.862V30.2068H31.4482V30.6206H28.5517V30.2068H27.7241V29.793H27.3103V29.3792H26.8965V28.5517H26.4827V26.0689H26.8965V25.2413H27.3103V24.8275H27.7241V24.4137H28.5517V23.9999Z" fill="#020407"/>
<path d="M10.3448 11.1724H13.6551V11.5862H14.4827V11.9999H14.8965V12.4137H15.3103V15.7241H14.8965V16.1379H14.4827V16.5517H13.2413V16.9655H10.3448V11.1724Z" fill="white"/>
</g>
<defs>
<clipPath id="clip0_456_356">
<rect width="206.897" height="36" fill="white"/>
</clipPath>
</defs>
</svg>
