<svg width="149" height="36" viewBox="0 0 149 36" fill="none" xmlns="http://www.w3.org/2000/svg">
<mask id="mask0_456_290" style="mask-type:luminance" maskUnits="userSpaceOnUse" x="0" y="0" width="149" height="36">
<path d="M148.645 0H0V35.5765H148.645V0Z" fill="white"/>
</mask>
<g mask="url(#mask0_456_290)">
<path d="M19.308 9.36389C17.032 9.36389 14.206 9.9749 12.6938 12.0065C11.1662 9.9749 8.35555 9.36389 6.07952 9.36389C2.18428 9.36389 -0.0153809 11.976 -0.0153809 16.0087V26.5029H4.97968V16.6198C4.97968 14.7103 6.04896 13.6411 7.54596 13.6411C9.16515 13.6411 10.2955 14.8478 10.2955 16.803V26.5029H15.0921V16.803C15.0921 14.8631 16.2377 13.6411 17.8416 13.6411C19.3539 13.6411 20.4079 14.7103 20.4079 16.6198V26.5029H25.4029V16.0087C25.4029 11.976 23.2033 9.36389 19.308 9.36389Z" fill="black"/>
<path d="M116.155 26.5181C118.431 26.5181 121.256 25.9072 122.768 23.8755C124.296 25.9072 127.107 26.5181 129.383 26.5181C133.278 26.5181 135.477 23.9061 135.477 19.8734V9.36389H130.483V19.2471C130.483 21.1565 129.413 22.2258 127.916 22.2258C126.297 22.2258 125.167 21.0191 125.167 19.0638V9.36389H120.37V19.0638C120.37 21.0038 119.225 22.2258 117.621 22.2258C116.108 22.2258 115.054 21.1565 115.054 19.2471V9.36389H110.059V19.8581C110.059 23.9061 112.274 26.5181 116.155 26.5181Z" fill="black"/>
<path d="M66.3411 0.045793V26.5181H61.7584V24.456C60.4753 26.0293 58.5964 26.9458 56.3662 26.9458C51.8447 26.9458 48.1022 23.0965 48.1022 18.1319C48.1022 13.2132 51.8447 9.34853 56.3662 9.34853C58.3825 9.34853 60.1086 10.0817 61.3612 11.4107V0.0305176H66.3411V0.045793ZM61.7432 18.1472C61.7432 15.6115 59.8031 13.6257 57.298 13.6257C54.7623 13.6257 52.8528 15.6115 52.8528 18.1472C52.8528 20.7135 54.7623 22.6993 57.298 22.6993C59.8031 22.6993 61.7432 20.7135 61.7432 18.1472Z" fill="black"/>
<path d="M69.442 35.6373V9.62321H74.0247V11.6854C75.3078 10.112 77.1867 9.1955 79.4169 9.1955C83.9384 9.1955 87.6809 13.0449 87.6809 18.0095C87.6809 22.9281 83.9384 26.7928 79.4169 26.7928C77.4006 26.7928 75.6744 26.0595 74.4219 24.7307V35.6373H69.442ZM74.0247 17.9941C74.0247 20.5299 75.9646 22.5156 78.4698 22.5156C81.0056 22.5156 82.915 20.5299 82.915 17.9941C82.915 15.4279 81.0056 13.4421 78.4698 13.4421C75.9798 13.4421 74.0247 15.4279 74.0247 17.9941Z" fill="black"/>
<path d="M136.914 25.4947L137.494 21.7828C139.068 22.6687 140.549 23.2186 141.97 23.2186C143.222 23.2186 143.956 22.6382 143.956 21.6758C143.956 20.9426 143.559 20.3927 141.939 19.9192L141.282 19.6595C138.746 18.7735 137.249 17.0169 137.249 14.4812C137.249 11.5483 139.556 9.33331 143.161 9.33331C144.78 9.33331 146.537 9.7763 148.126 10.479L147.499 14.2214C146.033 13.4576 144.445 13.0147 143.39 13.0147C142.29 13.0147 141.74 13.5951 141.74 14.3437C141.74 15.0005 142.107 15.5198 143.467 15.9934L144.2 16.2531C147.178 17.2765 148.675 18.9721 148.675 21.5842C148.675 24.8226 146.217 27.0223 142.474 27.0223C140.518 26.9916 138.563 26.4112 136.914 25.4947Z" fill="black"/>
<path d="M107.676 9.36392V26.5182H103.094V24.456C101.811 26.0294 99.9317 26.9459 97.7014 26.9459C93.1799 26.9459 89.4374 23.0965 89.4374 18.1319C89.4374 13.2133 93.1799 9.34863 97.7014 9.34863C99.7178 9.34863 101.444 10.0819 102.696 11.4108V9.34863H107.676V9.36392ZM103.078 18.1473C103.078 15.6116 101.138 13.6258 98.6332 13.6258C96.0976 13.6258 94.188 15.6116 94.188 18.1473C94.188 20.7135 96.0976 22.6993 98.6332 22.6993C101.138 22.6993 103.078 20.7135 103.078 18.1473Z" fill="black"/>
<path d="M45.811 9.36392V26.5182H41.2283V24.456C39.9452 26.0294 38.0663 26.9459 35.8361 26.9459C31.3146 26.9459 27.5721 23.0965 27.5721 18.1319C27.5721 13.2133 31.3146 9.34863 35.8361 9.34863C37.8524 9.34863 39.5785 10.0819 40.8311 11.4108V9.34863H45.811V9.36392ZM41.2283 18.1473C41.2283 15.6116 39.2883 13.6258 36.7831 13.6258C34.2474 13.6258 32.338 15.6116 32.338 18.1473C32.338 20.7135 34.2474 22.6993 36.7831 22.6993C39.273 22.6993 41.2283 20.7135 41.2283 18.1473Z" fill="black"/>
</g>
</svg>
