<svg width="136" height="36" viewBox="0 0 136 36" fill="none" xmlns="http://www.w3.org/2000/svg">
<g clip-path="url(#clip0_456_322)">
<path d="M116.662 0H123.699L126.677 1.08271L129.113 2.70677L131.007 4.87218L132.09 7.03759L132.632 9.74436V12.9925L131.819 18.6767V19.7594L133.985 20.3008H135.338V22.1955L134.256 23.2782H131.278L130.195 31.1278L129.113 33.2932L127.759 34.3759H125.865L125.053 34.1053V31.9398L127.759 12.4511L127.489 10.015L126.406 7.84962L125.053 6.49624L123.429 5.41353L121.263 4.87218H118.556L113.143 5.95489L109.083 7.57895L105.022 10.2857L104.21 11.0977H103.669V11.6391H103.128L102.586 12.7218L100.962 14.6165L99.0676 17.594L96.9022 23.0075L95.5488 29.2331H100.962L101.233 27.3383L102.586 25.1729L104.481 23.5489L106.917 22.7368H109.083L111.248 23.8195L112.331 24.9023L112.872 25.985V29.2331H118.286L118.556 25.985L118.827 24.0902L115.579 23.5489L113.143 22.1955L110.977 19.7594L110.165 17.3233V11.9098L111.248 9.20301L113.413 7.30827L114.767 7.57895L116.391 9.74436H115.85L115.308 11.0977L115.038 11.6391V14.8872L115.85 17.0526L118.015 18.6767L120.451 19.4887L122.887 19.7594L123.699 20.5714L123.97 22.7368L122.616 32.4812L122.075 34.1053L121.534 34.3759H107.459L107.729 27.8797L106.376 28.1504L105.835 31.1278L105.293 33.8346L104.752 34.3759H90.406L90.1353 33.0226L91.4887 23.5489L93.1127 18.9474L95.2781 14.6165L97.4435 11.3684L99.8796 8.66165L101.233 7.30827L103.398 5.41353L106.917 3.24812L109.895 1.89474L113.955 0.541353L116.662 0Z" fill="black"/>
<path d="M69.8345 6.76685H76.0601L75.7894 10.827L74.9774 16.5112L74.7067 17.3232H84.1804L84.4511 13.5338L85.5338 6.76685H92.03L90.4059 18.9473L88.2405 34.3759L87.9699 34.9172H81.7443L82.015 30.8571L83.0977 23.5488L83.3684 22.4661L74.1653 22.7368L72.5413 33.8345L72.2706 34.9172H66.045L65.7744 34.3759L69.5638 7.3082L69.8345 6.76685Z" fill="black"/>
<path d="M10.5563 6.22559H16.2405L21.3834 7.03762L22.1954 7.30829V9.47371L21.6541 11.9098H10.827L9.47361 12.4511L8.93225 13.5339V15.9699L12.1804 17.594L12.9924 17.8647V18.406L14.8871 18.6767L17.5939 19.7594L20.03 21.9248L20.5714 23.2782L20.842 26.5263L20.3007 29.7745L18.6766 33.0226L16.7819 34.376L13.5338 35.188H4.8721L-7.62939e-05 34.376V32.2105L0.541277 29.5038H11.639L13.5338 28.6918L14.0751 27.0677L13.8044 25.173L11.639 24.0902L5.68413 21.6542L3.7894 20.3008L2.43601 18.1354L2.16534 17.0527V13.5339L2.70669 11.0978L4.33075 8.391L7.03752 6.76694L10.5563 6.22559Z" fill="black"/>
<path d="M29.5037 6.76685H42.2255L44.6616 7.03752L44.3909 10.015L43.8496 11.9097L32.4811 12.1804L31.6691 12.7217L30.8571 17.5939L41.4135 17.8646L41.6842 18.4059L41.1428 22.1954L40.8721 22.4661H30.0451L29.5037 27.3383V28.9623L30.3157 29.5037L41.4135 29.7744V32.2105L41.1428 34.6465L37.8947 34.9172H27.0676L25.1729 34.1052L23.5488 32.7518L22.7368 30.8571V27.3383L24.9022 12.1804L25.7142 9.74429L27.609 7.57888L29.5037 6.76685Z" fill="black"/>
<path d="M45.2029 6.76685H68.2105L67.6691 11.9097H59.2781L58.4661 18.4059L56.3007 34.1052L56.03 34.9172H49.8044L49.5338 34.1052L52.5112 13.5338L52.7819 11.9097H44.6616L44.9323 8.39091L45.2029 6.76685Z" fill="black"/>
<path d="M121.534 12.1804H124.241L125.053 13.2631V15.1579L123.97 16.2406L121.804 16.5112L120.722 15.4285V13.2631L121.534 12.1804Z" fill="black"/>
</g>
<defs>
<clipPath id="clip0_456_322">
<rect width="135.338" height="36" fill="white"/>
</clipPath>
</defs>
</svg>
